<svg width="26" height="17" viewBox="0 0 26 17" fill="none" xmlns="http://www.w3.org/2000/svg">
<path d="M23.0658 6.89683C23.0573 6.13218 23.0544 5.36187 23.0516 4.59439H20.7633C20.7548 5.35904 20.7492 6.12652 20.7435 6.89683C19.9732 6.89966 19.2085 6.90533 18.4439 6.91383V9.20494C19.2085 9.21344 19.9788 9.2191 20.7435 9.2276C20.752 9.99224 20.752 10.7597 20.7577 11.5244H23.0488C23.0516 10.7597 23.0573 9.99224 23.0629 9.22193C23.8332 9.21343 24.5979 9.2106 25.3625 9.20211V6.91099C24.6007 6.90533 23.8304 6.90533 23.0658 6.89683ZM8.056 6.90816C8.05316 7.82291 8.056 8.74049 8.05883 9.65523C9.59379 9.70621 11.1316 9.68355 12.6665 9.70621C11.9897 13.1131 7.35932 14.2176 4.90961 11.9917C2.3891 10.0404 2.50805 5.76119 5.12768 3.94869C6.96 2.48736 9.56264 2.84703 11.395 4.11295C12.1143 3.44742 12.7883 2.73375 13.4369 1.99742C11.9132 0.782477 10.0441 -0.084124 8.056 0.00650101C3.90424 -0.132269 0.0894929 3.50406 0.0215241 7.65865C-0.244687 11.0543 1.98695 14.3819 5.13617 15.5827C8.27406 16.7919 12.2984 15.9678 14.3035 13.1471C15.626 11.3658 15.9121 9.07183 15.7563 6.91666C13.1876 6.89683 10.6218 6.89966 8.056 6.90816Z" fill="#F24E1E"/>
</svg>
