<svg width="23" height="23" viewBox="0 0 23 23" fill="none" xmlns="http://www.w3.org/2000/svg">
<g clip-path="url(#clip0_118_88)">
<path d="M20.8486 11.0059L11.9944 2.15175C11.8838 2.04181 11.7342 1.9801 11.5783 1.9801C11.4223 1.9801 11.2727 2.04181 11.1621 2.15175L2.30795 11.0059C2.21125 11.1188 2.16072 11.2641 2.16646 11.4127C2.17219 11.5612 2.23378 11.7021 2.3389 11.8073C2.44403 11.9124 2.58495 11.974 2.73351 11.9797C2.88207 11.9854 3.02732 11.9349 3.14024 11.8382L11.5753 3.40314L20.0104 11.8441C20.1233 11.9408 20.2686 11.9913 20.4171 11.9856C20.5657 11.9799 20.7066 11.9183 20.8117 11.8132C20.9168 11.708 20.9784 11.5671 20.9842 11.4186C20.9899 11.27 20.9394 11.1247 20.8427 11.0118L20.8486 11.0059Z" fill="#6A6A6A"/>
<path d="M17.4781 19.6889H14.5267V13.7861H8.62389V19.6889H5.6725V11.425L4.49194 12.6056V19.6889C4.49194 20.002 4.61632 20.3023 4.83772 20.5237C5.05912 20.7451 5.3594 20.8695 5.6725 20.8695H9.80444V14.9667H13.3461V20.8695H17.4781C17.7912 20.8695 18.0914 20.7451 18.3128 20.5237C18.5342 20.3023 18.6586 20.002 18.6586 19.6889V12.4639L17.4781 11.2834V19.6889Z" fill="#6A6A6A"/>
</g>
<defs>
<clipPath id="clip0_118_88">
<rect width="21.25" height="21.25" fill="white" transform="translate(0.950195 0.800018)"/>
</clipPath>
</defs>
</svg>
