<svg width="25" height="25" viewBox="0 0 25 25" fill="none" xmlns="http://www.w3.org/2000/svg">
<g clip-path="url(#clip0_107_1259)">
<path d="M23.4099 12.007L12.9932 1.59031C12.8631 1.46097 12.6871 1.38837 12.5037 1.38837C12.3202 1.38837 12.1442 1.46097 12.0141 1.59031L1.5974 12.007C1.48364 12.1398 1.42419 12.3107 1.43094 12.4855C1.43769 12.6603 1.51014 12.826 1.63382 12.9497C1.7575 13.0734 1.92329 13.1459 2.09806 13.1526C2.27284 13.1594 2.44372 13.0999 2.57657 12.9861L12.5002 3.06253L22.4238 12.9931C22.5566 13.1069 22.7275 13.1663 22.9023 13.1596C23.0771 13.1528 23.2429 13.0803 23.3665 12.9567C23.4902 12.833 23.5627 12.6672 23.5694 12.4924C23.5762 12.3177 23.5167 12.1468 23.403 12.0139L23.4099 12.007Z" fill="black"/>
<path d="M19.4448 22.2223H15.9725V15.2778H9.0281V22.2223H5.55588V12.5L4.16699 13.8889V22.2223C4.16699 22.5906 4.31332 22.9439 4.57379 23.2044C4.83426 23.4648 5.18752 23.6112 5.55588 23.6112H10.417V16.6667H14.5837V23.6112H19.4448C19.8131 23.6112 20.1664 23.4648 20.4269 23.2044C20.6873 22.9439 20.8337 22.5906 20.8337 22.2223V13.7223L19.4448 12.3334V22.2223Z" fill="black"/>
</g>
<defs>
<clipPath id="clip0_107_1259">
<rect width="25" height="25" fill="white" transform="translate(0.000244141 3.05176e-05)"/>
</clipPath>
</defs>
</svg>
