<svg width="30" height="28" viewBox="0 0 30 28" fill="none" xmlns="http://www.w3.org/2000/svg">
<path fill-rule="evenodd" clip-rule="evenodd" d="M8.79945 0.202599C10.3441 0.136512 10.8366 0.121826 14.7713 0.121826C18.706 0.121826 19.1985 0.137736 20.7418 0.202599C22.2851 0.267462 23.3386 0.496317 24.2604 0.827974C25.2256 1.16697 26.1013 1.69689 26.8256 2.38223C27.563 3.05412 28.1319 3.86674 28.4953 4.76503C28.8535 5.6217 29.0984 6.60077 29.1695 8.03264C29.2406 9.47064 29.2564 9.92835 29.2564 13.5839C29.2564 17.2407 29.2393 17.6984 29.1695 19.134C29.0997 20.5659 28.8535 21.5449 28.4953 22.4016C28.1318 23.3 27.562 24.114 26.8256 24.7868C26.1013 25.4722 25.2256 26.0009 24.2604 26.3386C23.3386 26.6715 22.2851 26.8992 20.7444 26.9652C19.1985 27.0313 18.706 27.046 14.7713 27.046C10.8366 27.046 10.3441 27.0301 8.79945 26.9652C7.25876 26.9004 6.20529 26.6715 5.28351 26.3386C4.31685 26.0008 3.44102 25.4713 2.717 24.7868C1.98008 24.1145 1.4098 23.301 1.04594 22.4028C0.689083 21.5461 0.444153 20.5671 0.373044 19.1352C0.301935 17.6972 0.286133 17.2395 0.286133 13.5839C0.286133 9.92713 0.303252 9.46942 0.373044 8.03509C0.442836 6.60077 0.689083 5.6217 1.04594 4.76503C1.41034 3.86684 1.98105 3.05327 2.71832 2.38101C3.44131 1.69628 4.31626 1.16629 5.28219 0.827974C6.20397 0.496317 7.25744 0.268685 8.79813 0.202599H8.79945ZM20.6246 2.62578C19.0971 2.56091 18.6388 2.54745 14.7713 2.54745C10.9037 2.54745 10.4455 2.56091 8.91796 2.62578C7.505 2.68574 6.73861 2.90481 6.22768 3.08961C5.55214 3.33437 5.06886 3.62442 4.56188 4.09559C4.0813 4.53011 3.71145 5.05909 3.47945 5.64373C3.28061 6.11858 3.04489 6.83084 2.98037 8.14401C2.91058 9.56365 2.89609 9.98954 2.89609 13.5839C2.89609 17.1783 2.91058 17.6042 2.98037 19.0238C3.04489 20.337 3.28061 21.0493 3.47945 21.5241C3.71121 22.1079 4.08124 22.6378 4.56188 23.0723C5.02936 23.5189 5.59955 23.8628 6.22768 24.0782C6.73861 24.263 7.505 24.4821 8.91796 24.5421C10.4455 24.6069 10.9024 24.6204 14.7713 24.6204C18.6401 24.6204 19.0971 24.6069 20.6246 24.5421C22.0376 24.4821 22.8039 24.263 23.3149 24.0782C23.9904 23.8335 24.4737 23.5434 24.9807 23.0723C25.4613 22.6378 25.8313 22.1079 26.0631 21.5241C26.2619 21.0493 26.4977 20.337 26.5622 19.0238C26.632 17.6042 26.6465 17.1783 26.6465 13.5839C26.6465 9.98954 26.632 9.56365 26.5622 8.14401C26.4977 6.83084 26.2619 6.11858 26.0631 5.64373C25.7997 5.01591 25.4877 4.56677 24.9807 4.09559C24.5131 3.64898 23.9439 3.30526 23.3149 3.08961C22.8039 2.90481 22.0376 2.68574 20.6246 2.62578ZM12.9211 17.7339C13.9544 18.1337 15.1049 18.1876 16.1762 17.8866C17.2476 17.5855 18.1732 16.9481 18.795 16.0833C19.4168 15.2184 19.6963 14.1798 19.5857 13.1447C19.475 12.1096 18.9812 11.1424 18.1885 10.4081C17.6831 9.93872 17.0721 9.57933 16.3993 9.35578C15.7266 9.13223 15.0089 9.05009 14.2979 9.11526C13.5869 9.18044 12.9003 9.39131 12.2875 9.7327C11.6747 10.0741 11.151 10.5375 10.754 11.0896C10.3571 11.6417 10.0968 12.2687 9.99186 12.9255C9.88694 13.5822 9.94002 14.2525 10.1473 14.8879C10.3545 15.5234 10.7108 16.1082 11.1904 16.6003C11.6701 17.0924 12.2612 17.4796 12.9211 17.7339ZM9.50659 8.69106C10.198 8.04852 11.0187 7.53883 11.922 7.19109C12.8254 6.84335 13.7935 6.66437 14.7713 6.66437C15.749 6.66437 16.7172 6.84335 17.6205 7.19109C18.5238 7.53883 19.3446 8.04852 20.036 8.69106C20.7273 9.3336 21.2758 10.0964 21.6499 10.9359C22.0241 11.7754 22.2167 12.6752 22.2167 13.5839C22.2167 14.4926 22.0241 15.3924 21.6499 16.2319C21.2758 17.0714 20.7273 17.8342 20.036 18.4768C18.6397 19.7744 16.7459 20.5035 14.7713 20.5035C12.7966 20.5035 10.9029 19.7744 9.50659 18.4768C8.1103 17.1791 7.32588 15.4191 7.32588 13.5839C7.32588 11.7487 8.1103 9.98873 9.50659 8.69106ZM23.868 7.69487C24.0393 7.54467 24.1764 7.36404 24.2713 7.16369C24.3662 6.96335 24.4168 6.74734 24.4202 6.52847C24.4237 6.30961 24.3798 6.09232 24.2913 5.88949C24.2027 5.68666 24.0713 5.50239 23.9048 5.34761C23.7382 5.19284 23.54 5.07068 23.3217 4.9884C23.1035 4.90611 22.8697 4.86535 22.6342 4.86854C22.3987 4.87173 22.1663 4.9188 21.9507 5.00697C21.7351 5.09514 21.5408 5.22261 21.3791 5.38183C21.0648 5.6915 20.8927 6.10282 20.8994 6.52847C20.9061 6.95413 21.091 7.36061 21.4149 7.66163C21.7388 7.96265 22.1762 8.1345 22.6342 8.14071C23.0922 8.14691 23.5348 7.98698 23.868 7.69487Z" fill="white"/>
</svg>
