<svg width="964" height="458" viewBox="0 0 964 458" fill="none" xmlns="http://www.w3.org/2000/svg">
<path d="M237.091 237.159L211.737 241.63C210.417 241.863 209.656 241.401 209.452 240.246L178.802 67.6129C178.57 66.2926 179.113 65.5161 180.433 65.2834L203.313 61.2482L263.695 153.594L245.219 55.8998C244.986 54.5795 245.612 53.7884 247.096 53.5267L272.203 49.0988C273.193 48.9243 273.804 49.4972 274.036 50.8176L304.73 223.698C304.904 224.689 304.579 225.256 303.755 225.402L281.492 229.328L221.153 143.739L239.092 234.764C239.325 236.084 238.658 236.882 237.091 237.159Z" fill="#FFCFAC" fill-opacity="0.16"/>
<path d="M356.937 216.023L328.244 221.083C327.419 221.228 326.934 220.889 326.789 220.063L296.372 45.8575C296.256 45.1973 296.527 44.8091 297.187 44.6928L325.633 39.676C326.293 39.5596 326.681 39.8316 326.797 40.4917L357.709 214.61C357.854 215.436 357.597 215.906 356.937 216.023Z" fill="#FFCFAC" fill-opacity="0.16"/>
<path d="M409.873 206.687L381.179 211.747C380.519 211.864 380.117 211.509 379.971 210.684L349.845 36.6823C349.7 35.857 349.957 35.3863 350.617 35.2699L379.063 30.2531C379.723 30.1368 380.126 30.4913 380.271 31.3165L390.841 91.3511L419.929 24.0672C420.472 23.2907 421.032 22.8516 421.61 22.7498L450.674 17.6239C451.417 17.4931 451.64 17.7941 451.344 18.5269L419.874 96.1856L487.37 191.999C487.898 192.586 487.544 192.989 486.307 193.207L455.387 198.66C454.563 198.806 454.01 198.563 453.729 197.932L406.349 129.456L400.009 144.869L410.644 205.275C410.79 206.1 410.532 206.571 409.873 206.687Z" fill="#FFCFAC" fill-opacity="0.16"/>
<path d="M581.789 176.368L499.912 190.808C499.253 190.924 498.85 190.57 498.705 189.744L468.288 15.5387C468.172 14.8785 468.443 14.4903 469.103 14.3739L550.485 0.0215596C551.144 -0.0947716 551.547 0.259672 551.692 1.08489L556.683 29.4311C556.799 30.0913 556.527 30.4795 555.868 30.5959L503.922 39.757L510.896 79.3674L562.842 70.2063C563.502 70.09 563.89 70.3619 564.006 71.0221L569.309 99.696C569.426 100.356 569.154 100.744 568.494 100.861L516.301 110.066L524.103 154.38L576.297 145.175C576.956 145.059 577.359 145.413 577.504 146.238L582.604 175.203C582.72 175.864 582.448 176.252 581.789 176.368Z" fill="#FFCFAC" fill-opacity="0.16"/>
<path d="M964 125.004L259.969 420.785C201.586 445.16 152.464 457.588 112.644 457.99C67.5488 458.445 34.6622 443.641 14.0639 413.538C1.10425 394.208 -2.88902 369.575 2.04345 339.6C6.97593 309.626 20.5858 277.633 42.7914 243.506C61.3179 215.904 91.756 179.571 134.186 134.467C119.863 156.57 109.44 180.784 103.339 206.135C92.5305 252.387 103.018 286.144 134.803 307.446C149.923 317.372 170.629 322.221 196.961 321.955C217.978 321.742 241.62 318.26 267.887 311.508L964 125.004Z" fill="#FFCFAC" fill-opacity="0.16"/>
</svg>
