<svg width="64" height="24" viewBox="0 0 64 24" fill="none" xmlns="http://www.w3.org/2000/svg">
<path d="M64 0.799988L17.1787 20.736C13.296 22.3787 10.0347 23.2027 7.39732 23.2027C4.41066 23.2027 2.24266 22.1573 0.898658 20.064C0.0533252 18.72 -0.194675 17.016 0.151992 14.9493C0.498658 12.8827 1.42133 10.6827 2.91466 8.34132C4.15999 6.44799 6.19999 3.95999 9.03999 0.874654C8.0767 2.3911 7.37031 4.05614 6.94932 5.80265C6.20266 8.98932 6.87466 11.328 8.96532 12.8213C9.95999 13.5173 11.328 13.8667 13.072 13.8667C14.464 13.8667 16.032 13.6427 17.776 13.1947L64 0.799988Z" fill="black"/>
</svg>
