<svg width="25" height="25" viewBox="0 0 25 25" fill="none" xmlns="http://www.w3.org/2000/svg">
<path d="M21.5335 6.64298V3.51553C21.5335 3.0834 21.1843 2.73428 20.7522 2.73428H4.24831C3.81618 2.73428 3.46706 3.0834 3.46706 3.51553V6.64298C3.05934 6.66739 2.73463 7.00674 2.73463 7.42178V10.6371C2.73307 11.228 2.85272 11.813 3.0862 12.3559C3.19118 12.6049 3.32057 12.8393 3.46706 13.0614V21.4843C3.46706 21.914 3.81618 22.2655 4.24831 22.2655H20.7522C21.1843 22.2655 21.5335 21.9164 21.5335 21.4843V13.0614C21.6823 12.8387 21.8098 12.6025 21.9143 12.3559C22.1463 11.8114 22.2659 11.2328 22.2659 10.6371V7.42178C22.2659 7.00674 21.9412 6.66739 21.5335 6.64298ZM5.22487 4.4921H19.7757V6.64053H5.22487V4.4921ZM14.0628 20.5102H10.9378V17.9687H14.0628V20.5102ZM19.7757 20.5102H15.6253V17.1874C15.6253 16.7553 15.2761 16.4062 14.844 16.4062H10.1565C9.72438 16.4062 9.37526 16.7553 9.37526 17.1874V20.5102H5.22487V14.5971C5.29567 14.6313 5.36891 14.6654 5.4446 14.6947C5.98903 14.9242 6.56764 15.039 7.16335 15.039C7.75905 15.039 8.33522 14.9242 8.8821 14.6947C9.21901 14.5531 9.53639 14.3725 9.82692 14.1552C9.8318 14.1527 9.83669 14.1527 9.84157 14.1552C10.133 14.3734 10.4504 14.5546 10.7864 14.6947C11.3308 14.9242 11.9094 15.039 12.5051 15.039C13.1008 15.039 13.677 14.9242 14.2239 14.6947C14.5608 14.5531 14.8782 14.3725 15.1687 14.1552C15.1736 14.1527 15.1785 14.1527 15.1834 14.1552C15.4748 14.3734 15.7922 14.5546 16.1282 14.6947C16.6726 14.9242 17.2512 15.039 17.8469 15.039C18.4426 15.039 19.0188 14.9242 19.5657 14.6947C19.6389 14.663 19.7122 14.6313 19.7854 14.5971V20.5102H19.7757ZM20.5081 10.6371C20.5081 12.0971 19.3118 13.2812 17.8396 13.2812C16.8435 13.2812 15.9744 12.7416 15.5154 11.9408C15.4446 11.8188 15.3176 11.7431 15.176 11.7431H15.1614C15.0222 11.7431 14.8928 11.8188 14.822 11.9408C14.5878 12.3493 14.2496 12.6885 13.8418 12.9239C13.434 13.1593 12.9711 13.2826 12.5003 13.2812C11.5066 13.2812 10.6399 12.744 10.1809 11.9457C10.1077 11.8212 9.97585 11.7431 9.8318 11.7431C9.68776 11.7431 9.55348 11.8212 9.48268 11.9457C9.24709 12.3526 8.90845 12.6903 8.50086 12.9248C8.09327 13.1592 7.63111 13.2821 7.1609 13.2812C5.68874 13.2812 4.49245 12.0971 4.49245 10.6371V8.41055C4.49245 8.40323 4.49733 8.39835 4.50465 8.39835H20.4959C20.5032 8.39835 20.5081 8.40323 20.5081 8.41055V10.6371Z" fill="black"/>
</svg>
