<svg width="23" height="23" viewBox="0 0 23 23" fill="none" xmlns="http://www.w3.org/2000/svg">
<path d="M19.1035 6.44653V3.78821C19.1035 3.4209 18.8068 3.12415 18.4395 3.12415H4.41115C4.04384 3.12415 3.74708 3.4209 3.74708 3.78821V6.44653C3.40053 6.46729 3.12452 6.75574 3.12452 7.10852V9.84155C3.1232 10.3438 3.2249 10.8411 3.42335 11.3025C3.51259 11.5142 3.62257 11.7134 3.74708 11.9022V19.0616C3.74708 19.4269 4.04384 19.7257 4.41115 19.7257H18.4395C18.8068 19.7257 19.1035 19.429 19.1035 19.0616V11.9022C19.23 11.7129 19.3384 11.5121 19.4273 11.3025C19.6244 10.8397 19.7261 10.3479 19.7261 9.84155V7.10852C19.7261 6.75574 19.4501 6.46729 19.1035 6.44653ZM5.24122 4.61829H17.6094V6.44446H5.24122V4.61829ZM12.7534 18.2336H10.0972V16.0734H12.7534V18.2336ZM17.6094 18.2336H14.0816V15.4093C14.0816 15.042 13.7848 14.7452 13.4175 14.7452H9.43312C9.06581 14.7452 8.76906 15.042 8.76906 15.4093V18.2336H5.24122V13.2075C5.3014 13.2366 5.36366 13.2656 5.42799 13.2905C5.89076 13.4856 6.38258 13.5831 6.88893 13.5831C7.39528 13.5831 7.88502 13.4856 8.34987 13.2905C8.63624 13.1702 8.90602 13.0166 9.15297 12.8319C9.15712 12.8298 9.16127 12.8298 9.16542 12.8319C9.41314 13.0174 9.68289 13.1714 9.96852 13.2905C10.4313 13.4856 10.9231 13.5831 11.4295 13.5831C11.9358 13.5831 12.4256 13.4856 12.8904 13.2905C13.1768 13.1702 13.4465 13.0166 13.6935 12.8319C13.6976 12.8298 13.7018 12.8298 13.7059 12.8319C13.9537 13.0174 14.2234 13.1714 14.509 13.2905C14.9718 13.4856 15.4636 13.5831 15.97 13.5831C16.4763 13.5831 16.9661 13.4856 17.4309 13.2905C17.4932 13.2636 17.5554 13.2366 17.6177 13.2075V18.2336H17.6094ZM18.2319 9.84155C18.2319 11.0825 17.2151 12.089 15.9638 12.089C15.1171 12.089 14.3783 11.6304 13.9882 10.9497C13.928 10.8459 13.8201 10.7816 13.6997 10.7816H13.6873C13.569 10.7816 13.459 10.8459 13.3988 10.9497C13.1997 11.2969 12.9122 11.5852 12.5656 11.7853C12.219 11.9854 11.8256 12.0902 11.4253 12.089C10.5807 12.089 9.84401 11.6324 9.45387 10.9539C9.39162 10.848 9.27955 10.7816 9.15712 10.7816C9.03468 10.7816 8.92055 10.848 8.86036 10.9539C8.66011 11.2997 8.37227 11.5868 8.02582 11.786C7.67936 11.9853 7.28653 12.0898 6.88685 12.089C5.63551 12.089 4.61867 11.0825 4.61867 9.84155V7.94897C4.61867 7.94275 4.62282 7.9386 4.62904 7.9386H18.2216C18.2278 7.9386 18.2319 7.94275 18.2319 7.94897V9.84155Z" fill="#6A6A6A"/>
</svg>
