<svg width="23" height="23" viewBox="0 0 23 23" fill="none" xmlns="http://www.w3.org/2000/svg">
<path d="M19.1667 4.79167V18.2083H3.83333V4.79167H19.1667ZM19.1667 2.875H3.83333C2.76958 2.875 1.91667 3.72792 1.91667 4.79167V18.2083C1.91667 19.2721 2.76958 20.125 3.83333 20.125H19.1667C20.2304 20.125 21.0833 19.2721 21.0833 18.2083V4.79167C21.0833 3.72792 20.2304 2.875 19.1667 2.875ZM17.25 14.375H5.75V16.2917H17.25V14.375ZM9.58333 6.70833H5.75V12.4583H9.58333V6.70833ZM11.5 8.625H17.25V6.70833H11.5V8.625ZM17.25 10.5417H11.5V12.4583H17.25V10.5417Z" fill="#6A6A6A"/>
</svg>
