<svg width="21" height="19" viewBox="0 0 21 19" fill="none" xmlns="http://www.w3.org/2000/svg">
<path d="M18.75 2.08333V16.6667H2.08333V2.08333H18.75ZM18.75 0H2.08333C0.927083 0 0 0.927083 0 2.08333V16.6667C0 17.8229 0.927083 18.75 2.08333 18.75H18.75C19.9063 18.75 20.8333 17.8229 20.8333 16.6667V2.08333C20.8333 0.927083 19.9063 0 18.75 0ZM16.6667 12.5H4.16667V14.5833H16.6667V12.5ZM8.33333 4.16667H4.16667V10.4167H8.33333V4.16667ZM10.4167 6.25H16.6667V4.16667H10.4167V6.25ZM16.6667 8.33333H10.4167V10.4167H16.6667V8.33333Z" fill="black"/>
</svg>
