<svg width="19" height="17" viewBox="0 0 19 17" fill="none" xmlns="http://www.w3.org/2000/svg">
<path d="M16.4375 2.12084V14.5167H2.27083V2.12084H16.4375ZM16.4375 0.350006H2.27083C1.28802 0.350006 0.5 1.13803 0.5 2.12084V14.5167C0.5 15.4995 1.28802 16.2875 2.27083 16.2875H16.4375C17.4203 16.2875 18.2083 15.4995 18.2083 14.5167V2.12084C18.2083 1.13803 17.4203 0.350006 16.4375 0.350006ZM14.6667 10.975H4.04167V12.7458H14.6667V10.975ZM7.58333 3.89167H4.04167V9.20417H7.58333V3.89167ZM9.35417 5.66251H14.6667V3.89167H9.35417V5.66251ZM14.6667 7.43334H9.35417V9.20417H14.6667V7.43334Z" fill="#6A6A6A"/>
</svg>
