<svg width="23" height="23" viewBox="0 0 23 23" fill="none" xmlns="http://www.w3.org/2000/svg">
<path d="M18.2083 5.75H16.2917C16.2917 3.06667 14.1833 0.958336 11.5 0.958336C8.81667 0.958336 6.70833 3.06667 6.70833 5.75H4.79167C3.7375 5.75 2.875 6.6125 2.875 7.66667V19.1667C2.875 20.2208 3.7375 21.0833 4.79167 21.0833H18.2083C19.2625 21.0833 20.125 20.2208 20.125 19.1667V7.66667C20.125 6.6125 19.2625 5.75 18.2083 5.75ZM11.5 2.875C13.1292 2.875 14.375 4.12084 14.375 5.75H8.625C8.625 4.12084 9.87083 2.875 11.5 2.875ZM18.2083 19.1667H4.79167V7.66667H18.2083V19.1667ZM11.5 11.5C9.87083 11.5 8.625 10.2542 8.625 8.625H6.70833C6.70833 11.3083 8.81667 13.4167 11.5 13.4167C14.1833 13.4167 16.2917 11.3083 16.2917 8.625H14.375C14.375 10.2542 13.1292 11.5 11.5 11.5Z" fill="black"/>
</svg>
