<svg width="24" height="22" viewBox="0 0 24 22" fill="none" xmlns="http://www.w3.org/2000/svg">
<path d="M24 2.6096C23.1174 3.05059 22.1693 3.34856 21.1726 3.48324C22.201 2.78933 22.9704 1.69719 23.3373 0.410618C22.371 1.05779 21.3135 1.51332 20.2107 1.75742C19.4691 0.864556 18.4868 0.272751 17.4164 0.0738863C16.3459 -0.124978 15.2472 0.080224 14.2907 0.657635C13.3343 1.23505 12.5737 2.15236 12.127 3.26716C11.6803 4.38195 11.5725 5.63186 11.8203 6.82283C9.86244 6.71198 7.94711 6.13817 6.19863 5.13862C4.45016 4.13907 2.90761 2.73613 1.6711 1.02085C1.2483 1.84324 1.0052 2.79672 1.0052 3.81219C1.00473 4.72634 1.20437 5.62649 1.58641 6.43277C1.96846 7.23906 2.52109 7.92654 3.19528 8.43423C2.4134 8.40617 1.64877 8.16795 0.965031 7.73937V7.81088C0.964953 9.09302 1.35827 10.3357 2.07823 11.3281C2.7982 12.3204 3.80048 13.0014 4.915 13.2553C4.18968 13.4767 3.42923 13.5093 2.69109 13.3507C3.00555 14.4539 3.61807 15.4186 4.44291 16.1097C5.26776 16.8009 6.26363 17.1839 7.29111 17.2051C5.5469 18.7491 3.39282 19.5866 1.17537 19.5829C0.782575 19.583 0.39011 19.5571 0 19.5054C2.25083 21.1373 4.87097 22.0034 7.5469 22C16.6053 22 21.5573 13.5402 21.5573 6.20306C21.5573 5.96469 21.552 5.72394 21.5425 5.48556C22.5057 4.7001 23.3372 3.72744 23.9979 2.61318L24 2.6096Z" fill="#38BBF3"/>
</svg>
