<svg width="29" height="28" viewBox="0 0 29 28" fill="none" xmlns="http://www.w3.org/2000/svg">
<path d="M29.0001 4.15342C27.9347 4.69311 26.7902 5.05777 25.5871 5.2226C26.8285 4.37337 27.7573 3.03679 28.2001 1.46224C27.0337 2.25426 25.7572 2.81176 24.426 3.1105C23.5308 2.01778 22.3451 1.29352 21.053 1.05014C19.7609 0.806765 18.4346 1.0579 17.2801 1.76455C16.1256 2.4712 15.2075 3.59383 14.6682 4.95815C14.129 6.32247 13.9989 7.85214 14.298 9.30968C11.9347 9.17402 9.6227 8.47177 7.51213 7.2485C5.40155 6.02522 3.53955 4.30827 2.04696 2.20906C1.53661 3.21552 1.24315 4.38242 1.24315 5.62518C1.24258 6.74394 1.48357 7.84557 1.94474 8.83232C2.4059 9.81907 3.07298 10.6604 3.88679 11.2818C2.94299 11.2474 2.02001 10.9559 1.19467 10.4314V10.5189C1.19457 12.088 1.66934 13.6088 2.53841 14.8233C3.40748 16.0378 4.61733 16.8711 5.96266 17.1819C5.08713 17.4528 4.16919 17.4927 3.27819 17.2986C3.65777 18.6487 4.39714 19.8294 5.39281 20.6752C6.38847 21.5211 7.59059 21.9898 8.83085 22.0158C6.72543 23.9054 4.12524 24.9303 1.44857 24.9258C0.974428 24.9259 0.500685 24.8943 0.0297852 24.831C2.74676 26.8281 5.90951 27.888 9.13962 27.8839C20.074 27.8839 26.0515 17.5305 26.0515 8.55119C26.0515 8.25947 26.0451 7.96482 26.0336 7.6731C27.1963 6.71182 28.2 5.52146 28.9975 4.15779L29.0001 4.15342Z" fill="white"/>
</svg>
