<svg width="29" height="27" viewBox="0 0 29 27" fill="none" xmlns="http://www.w3.org/2000/svg">
<path d="M17.3331 20.5963V17.8443C17.3331 17.26 17.1508 16.9678 16.7862 16.9678C16.5724 16.9678 16.3649 17.0613 16.1638 17.2483V21.1748C16.3649 21.3617 16.5724 21.4552 16.7862 21.4552C17.1508 21.4552 17.3331 21.1689 17.3331 20.5963ZM20.8035 18.4578H22.0484V17.8618C22.0484 17.2658 21.8409 16.9678 21.4259 16.9678C21.011 16.9678 20.8035 17.2658 20.8035 17.8618V18.4578ZM10.034 13.7951V15.0222H8.52511V22.4368H7.12941V15.0222H5.65826V13.7951H10.034ZM13.825 16.0038V22.4368H12.5613V21.7357C12.071 22.2615 11.5931 22.5245 11.1279 22.5245C10.713 22.5245 10.4489 22.3609 10.3358 22.0337C10.2603 21.835 10.2226 21.5195 10.2226 21.0871V16.0038H11.4674V20.7365C11.4674 21.017 11.4737 21.1689 11.4863 21.1923C11.4988 21.3676 11.5931 21.4552 11.7692 21.4552C12.0207 21.4552 12.2847 21.2741 12.5613 20.9118V16.0038H13.825ZM18.578 17.9495V20.5087C18.578 21.1163 18.5339 21.5429 18.4459 21.7883C18.295 22.2791 17.9618 22.5245 17.4463 22.5245C17.0062 22.5245 16.5787 22.2849 16.1638 21.8058V22.4368H14.9001V13.7951H16.1638V16.6173C16.5661 16.1498 16.9936 15.9161 17.4463 15.9161C17.9618 15.9161 18.295 16.1615 18.4459 16.6523C18.5339 16.8977 18.578 17.3301 18.578 17.9495ZM23.312 20.2107V20.3684C23.312 20.7073 23.2995 20.9586 23.2743 21.1222C23.2366 21.3793 23.1423 21.613 22.9914 21.8233C22.6519 22.2908 22.1489 22.5245 21.4825 22.5245C20.8287 22.5245 20.3194 22.3024 19.9548 21.8584C19.6907 21.5429 19.5587 21.0404 19.5587 20.3509V18.0897C19.5587 17.4002 19.6845 16.8977 19.9359 16.5822C20.3006 16.1382 20.8035 15.9161 21.4448 15.9161C22.0861 15.9161 22.5765 16.1382 22.916 16.5822C23.18 16.9211 23.312 17.4236 23.312 18.0897V19.4219H20.8035V20.5612C20.8035 21.1572 21.0173 21.4552 21.4448 21.4552C21.7466 21.4552 21.9352 21.3033 22.0106 20.9995C22.0106 20.9878 22.0138 20.9469 22.0201 20.8768C22.0263 20.8067 22.0295 20.7102 22.0295 20.5875V20.2107H23.312ZM14.8058 5.76697V8.50145C14.8058 9.09743 14.6046 9.39542 14.2022 9.39542C13.7999 9.39542 13.5987 9.09743 13.5987 8.50145V5.76697C13.5987 5.1593 13.7999 4.85547 14.2022 4.85547C14.6046 4.85547 14.8058 5.1593 14.8058 5.76697ZM24.8586 18.265C24.8586 16.1966 24.7392 14.6774 24.5003 13.7075C24.3745 13.1933 24.1042 12.7639 23.6892 12.4191C23.2743 12.0744 22.7965 11.8728 22.2558 11.8144C20.5458 11.6391 17.9555 11.5515 14.4851 11.5515C11.0273 11.5515 8.44338 11.6391 6.73333 11.8144C6.18008 11.8728 5.69912 12.0744 5.29047 12.4191C4.88182 12.7639 4.61462 13.1933 4.48889 13.7075C4.23741 14.7242 4.11167 16.2433 4.11167 18.265C4.11167 20.3217 4.23741 21.8408 4.48889 22.8225C4.61462 23.325 4.88182 23.7515 5.29047 24.1021C5.69912 24.4526 6.17379 24.6571 6.71447 24.7156C8.43709 24.8909 11.0273 24.9785 14.4851 24.9785C17.943 24.9785 20.5332 24.8909 22.2558 24.7156C22.7965 24.6571 23.2712 24.4526 23.6798 24.1021C24.0885 23.7515 24.3557 23.325 24.4814 22.8225C24.7329 21.8408 24.8586 20.3217 24.8586 18.265ZM10.6187 6.85375L12.3161 1.66523H10.9016L9.93968 5.08334L8.94005 1.66523H7.4689C7.55692 1.93401 7.70152 2.33717 7.9027 2.87472L8.35536 4.0842C8.79545 5.28785 9.08465 6.21103 9.22296 6.85375V10.377H10.6187V6.85375ZM16.0695 8.27358V5.99484C16.0695 5.31706 15.9374 4.80873 15.6734 4.46984C15.3087 4.02577 14.8184 3.80374 14.2022 3.80374C13.561 3.80374 13.0706 4.02577 12.7311 4.46984C12.467 4.80873 12.335 5.31706 12.335 5.99484V8.27358C12.335 8.95136 12.467 9.45969 12.7311 9.79858C13.0706 10.2426 13.561 10.4647 14.2022 10.4647C14.8184 10.4647 15.3087 10.2426 15.6734 9.79858C15.9374 9.48306 16.0695 8.97473 16.0695 8.27358ZM19.4833 10.377H20.747V3.89139H19.4833V8.85203C19.2066 9.21429 18.9426 9.39542 18.6911 9.39542C18.5025 9.39542 18.4019 9.30193 18.3893 9.11496C18.3768 9.09159 18.3705 8.93967 18.3705 8.65921V3.89139H17.1068V9.02732C17.1068 9.45969 17.1445 9.78105 17.22 9.9914C17.3583 10.3069 17.6286 10.4647 18.031 10.4647C18.4836 10.4647 18.9677 10.2017 19.4833 9.67588V10.377ZM28.9703 5.04829V21.8759C28.9703 23.2665 28.439 24.4556 27.3765 25.443C26.3141 26.4305 25.0347 26.9242 23.5384 26.9242H5.43193C3.93563 26.9242 2.65624 26.4305 1.59374 25.443C0.531248 24.4556 0 23.2665 0 21.8759V5.04829C0 3.65767 0.531248 2.46864 1.59374 1.48118C2.65624 0.493727 3.93563 0 5.43193 0H23.5384C25.0347 0 26.3141 0.493727 27.3765 1.48118C28.439 2.46864 28.9703 3.65767 28.9703 5.04829Z" fill="white"/>
</svg>
